<?xml version="1.0" encoding="UTF-8"?>
<!DOCTYPE svg PUBLIC "-//W3C//DTD SVG 1.1//EN" "http://www.w3.org/Graphics/SVG/1.1/DTD/svg11.dtd">
<svg xmlns="http://www.w3.org/2000/svg" version="1.1" width="512px" height="512px" style="shape-rendering:geometricPrecision; text-rendering:geometricPrecision; image-rendering:optimizeQuality; fill-rule:evenodd; clip-rule:evenodd" xmlns:xlink="http://www.w3.org/1999/xlink">
<g><path style="opacity:0.991" fill="#fcdd2d" d="M 246.5,51.5 C 254.068,72.038 261.735,92.538 269.5,113C 291.769,114.493 314.102,115.827 336.5,117C 339,118.167 340.833,120 342,122.5C 342.837,126.295 342.504,129.961 341,133.5C 323.976,147.197 306.976,160.864 290,174.5C 294.689,193.912 300.022,213.246 306,232.5C 306.945,237.061 306.445,241.394 304.5,245.5C 289.381,235.555 274.381,225.388 259.5,215C 257.655,213.872 255.655,213.372 253.5,213.5C 251.05,212.223 248.717,210.723 246.5,209C 244.833,208.333 243.167,208.333 241.5,209C 223.911,221.616 205.911,233.45 187.5,244.5C 185.653,241.406 185.153,238.072 186,234.5C 191.178,216.121 196.511,197.788 202,179.5C 202.667,177.5 202.667,175.5 202,173.5C 184.713,160.548 167.713,147.215 151,133.5C 147.824,126.033 149.657,120.2 156.5,116C 178.545,115.101 200.545,113.935 222.5,112.5C 230.518,92.1009 238.518,71.7676 246.5,51.5 Z"/></g>
<g><path style="opacity:1" fill="#fbd309" d="M 304.5,245.5 C 306.445,241.394 306.945,237.061 306,232.5C 300.022,213.246 294.689,193.912 290,174.5C 306.976,160.864 323.976,147.197 341,133.5C 342.504,129.961 342.837,126.295 342,122.5C 340.833,120 339,118.167 336.5,117C 314.102,115.827 291.769,114.493 269.5,113C 261.735,92.538 254.068,72.038 246.5,51.5C 252.545,44.8666 258.711,44.8666 265,51.5C 272.549,71.9845 280.382,92.3179 288.5,112.5C 310.458,113.898 332.458,115.065 354.5,116C 363.434,122.89 363.767,130.224 355.5,138C 339.91,149.712 324.41,161.545 309,173.5C 308.333,175.5 308.333,177.5 309,179.5C 314.891,198.899 320.391,218.399 325.5,238C 324.013,247.087 318.679,250.754 309.5,249C 307.654,247.97 305.987,246.804 304.5,245.5 Z"/></g>
<g><path style="opacity:1" fill="#fbd30a" d="M 253.5,213.5 C 236.406,225.558 219.073,237.391 201.5,249C 195.75,250.547 191.084,249.047 187.5,244.5C 205.911,233.45 223.911,221.616 241.5,209C 243.167,208.333 244.833,208.333 246.5,209C 248.717,210.723 251.05,212.223 253.5,213.5 Z"/></g>
<g><path style="opacity:0.992" fill="#fcdd2d" d="M 111.5,266.5 C 112.79,267.058 113.623,268.058 114,269.5C 120.778,289.17 127.945,308.67 135.5,328C 157.151,329.258 178.817,330.258 200.5,331C 208.324,334.161 210.491,339.661 207,347.5C 190,361.167 173,374.833 156,388.5C 155.333,390.167 155.333,391.833 156,393.5C 161.489,411.788 166.822,430.121 172,448.5C 172.804,452.204 172.304,455.704 170.5,459C 171.252,459.671 171.586,460.504 171.5,461.5C 155.195,450.343 138.862,439.177 122.5,428C 121.181,427.805 119.847,427.972 118.5,428.5C 115.817,425.328 112.484,423.495 108.5,423C 90.267,435.415 71.9336,447.581 53.5,459.5C 51.5805,455.731 51.0805,451.731 52,447.5C 57.5777,428.689 63.0777,409.856 68.5,391C 68.0969,389.527 67.4303,388.194 66.5,387C 49.7139,374.549 33.2139,361.715 17,348.5C 14.4843,342.467 15.3176,336.967 19.5,332C 21.3921,331.027 23.3921,330.36 25.5,330C 46.5923,329.6 67.5923,328.6 88.5,327C 96.4646,306.938 104.131,286.772 111.5,266.5 Z"/></g>
<g><path style="opacity:0.992" fill="#fcdd2d" d="M 381.5,265.5 C 388.483,286.617 396.149,307.451 404.5,328C 425.816,329.25 447.15,330.25 468.5,331C 475.251,332.996 478.084,337.496 477,344.5C 476.117,347.102 474.617,349.269 472.5,351C 456.757,363.288 440.923,375.454 425,387.5C 424.588,392.614 425.255,397.614 427,402.5C 431.672,417.849 436.339,433.182 441,448.5C 442.054,452.655 441.22,456.322 438.5,459.5C 422.202,448.886 405.869,438.219 389.5,427.5C 388.817,427.863 388.15,428.196 387.5,428.5C 385.236,426.686 382.903,424.853 380.5,423C 379.167,422.333 377.833,422.333 376.5,423C 358.644,435.424 340.644,447.591 322.5,459.5C 320.939,457.509 319.939,455.176 319.5,452.5C 325.118,431.858 331.118,411.358 337.5,391C 336.21,388.708 334.543,386.708 332.5,385C 316.092,373.262 300.258,360.762 285,347.5C 282.103,338.847 284.937,333.014 293.5,330C 314.902,329.62 336.235,328.62 357.5,327C 364.192,309.26 370.692,291.427 377,273.5C 377.86,270.367 379.36,267.7 381.5,265.5 Z"/></g>
<g><path style="opacity:1" fill="#fbd308" d="M 171.5,461.5 C 171.586,460.504 171.252,459.671 170.5,459C 172.304,455.704 172.804,452.204 172,448.5C 166.822,430.121 161.489,411.788 156,393.5C 155.333,391.833 155.333,390.167 156,388.5C 173,374.833 190,361.167 207,347.5C 210.491,339.661 208.324,334.161 200.5,331C 178.817,330.258 157.151,329.258 135.5,328C 127.945,308.67 120.778,289.17 114,269.5C 113.623,268.058 112.79,267.058 111.5,266.5C 113.787,262.948 117.121,261.281 121.5,261.5C 125.558,261.446 128.724,263.112 131,266.5C 138.702,286.606 146.202,306.773 153.5,327C 174.768,328.54 196.101,329.54 217.5,330C 226.062,333.008 228.895,338.841 226,347.5C 210.742,360.762 194.908,373.262 178.5,385C 176.649,386.684 174.982,388.517 173.5,390.5C 179.81,411.071 185.81,431.737 191.5,452.5C 188.44,463.628 181.774,466.628 171.5,461.5 Z"/></g>
<g><path style="opacity:1" fill="#fbd309" d="M 438.5,459.5 C 441.22,456.322 442.054,452.655 441,448.5C 436.339,433.182 431.672,417.849 427,402.5C 425.255,397.614 424.588,392.614 425,387.5C 440.923,375.454 456.757,363.288 472.5,351C 474.617,349.269 476.117,347.102 477,344.5C 478.084,337.496 475.251,332.996 468.5,331C 447.15,330.25 425.816,329.25 404.5,328C 396.149,307.451 388.483,286.617 381.5,265.5C 383.305,262.597 385.971,261.264 389.5,261.5C 393.321,261.382 396.487,262.715 399,265.5C 406.642,286.095 414.475,306.595 422.5,327C 443.411,328.524 464.411,329.524 485.5,330C 490.438,330.272 493.604,332.772 495,337.5C 496.653,343.378 495.153,348.212 490.5,352C 474.396,363.803 458.563,375.97 443,388.5C 442.672,391.207 443.005,393.874 444,396.5C 449.716,414.866 454.883,433.366 459.5,452C 458.296,462.44 452.629,466.107 442.5,463C 440.907,462.051 439.574,460.885 438.5,459.5 Z"/></g>
<g><path style="opacity:1" fill="#fbd30a" d="M 118.5,428.5 C 102.012,440.137 85.3454,451.637 68.5,463C 62.6652,465.124 57.6652,463.957 53.5,459.5C 71.9336,447.581 90.267,435.415 108.5,423C 112.484,423.495 115.817,425.328 118.5,428.5 Z"/></g>
<g><path style="opacity:1" fill="#fbd30a" d="M 387.5,428.5 C 370.912,440.472 353.912,451.972 336.5,463C 330.951,465.204 326.285,464.037 322.5,459.5C 340.644,447.591 358.644,435.424 376.5,423C 377.833,422.333 379.167,422.333 380.5,423C 382.903,424.853 385.236,426.686 387.5,428.5 Z"/></g>
</svg>
