<svg width="25" height="25" viewBox="0 0 25 25" fill="none" xmlns="http://www.w3.org/2000/svg">
<mask id="mask0_21_43" style="mask-type:luminance" maskUnits="userSpaceOnUse" x="0" y="0" width="25" height="25">
<path d="M25 0H0V25H25V0Z" fill="white"/>
</mask>
<g mask="url(#mask0_21_43)">
<path d="M0 12C0 6.34315 0 3.51472 1.75736 1.75736C3.51472 0 6.34315 0 12 0H13C18.6568 0 21.4853 0 23.2426 1.75736C25 3.51472 25 6.34315 25 12V13C25 18.6568 25 21.4853 23.2426 23.2426C21.4853 25 18.6568 25 13 25H12C6.34315 25 3.51472 25 1.75736 23.2426C0 21.4853 0 18.6568 0 13V12Z" fill="white"/>
<path d="M13.3021 18.0104C7.60415 18.0104 4.35418 14.1041 4.21875 7.60413H7.07293C7.16668 12.375 9.2708 14.3958 10.9375 14.8125V7.60413H13.6251V11.7187C15.2709 11.5416 16.9998 9.66663 17.5832 7.60413H20.2708C19.8228 10.1458 17.9478 12.0208 16.6145 12.7916C17.9478 13.4166 20.0834 15.052 20.8959 18.0104H17.9374C17.302 16.0312 15.7188 14.5 13.6251 14.2916V18.0104H13.3021Z" fill="#0077FF"/>
</g>
</svg>
